<svg xmlns="http://www.w3.org/2000/svg" width="479pt" height="479pt" viewBox="-32 0 479 479.97588"><path d="M240.5 63.98c0-17.68-14.33-32-32-32s-32 14.32-32 32c0 17.67 14.33 32 32 32s32-14.33 32-32zm-32 16c-8.84 0-16-7.17-16-16 0-8.84 7.16-16 16-16s16 7.16 16 16c0 8.83-7.16 16-16 16zm0 0M414.65 290.85l-40-48c-1.57-1.74-3.8-2.73-6.15-2.73s-4.58 1-6.15 2.73l-40 48c-2 2.38-2.42 5.7-1.1 8.52 1.3 2.82 4.14 4.6 7.25 4.6h12.7c-11.84 48.23-54.74 85.43-108.7 94.1v-206.1h72c4.42 0 8-3.58 8-8v-32c0-4.4-3.58-8-8-8h-72v-20.64c28.4-11.5 44.67-41.5 38.82-71.56C265.47 21.7 239.12 0 208.5 0s-56.97 21.7-62.82 51.77c-5.85 30.07 10.42 60.07 38.82 71.56v20.65h-72c-4.42 0-8 3.58-8 8v32c0 4.4 3.58 8 8 8h72v206.1c-53.96-8.68-96.86-45.88-108.7-94.1h12.7c3.1 0 5.94-1.8 7.25-4.6 1.32-2.82.9-6.15-1.1-8.53l-40-48c-1.57-1.74-3.8-2.73-6.15-2.73s-4.58 1-6.15 2.73l-40 48c-2 2.38-2.42 5.7-1.1 8.52 1.3 2.82 4.14 4.6 7.25 4.6h17.87c11.65 74.4 76.53 132.9 158.13 142.6v9.4c0 2.13.84 4.16 2.34 5.66l16 16c3.13 3.13 8.2 3.13 11.32 0l16-16c1.5-1.5 2.34-3.53 2.34-5.65v-9.4c81.6-9.72 146.48-68.2 158.13-142.6h17.87c3.1 0 5.94-1.8 7.25-4.6 1.32-2.82.9-6.15-1.1-8.53zm-31.03-2.87c-4.08 0-7.5 3.07-7.95 7.13-7.92 72.4-71.76 129.7-151.83 136.26-4.16.34-7.36 3.83-7.34 8v13.33l-8 8-8-8v-13.36c.02-4.18-3.18-7.66-7.34-8C113.1 424.78 49.24 367.5 41.3 295.1c-.44-4.03-3.85-7.1-7.92-7.12h-7.8l22.92-27.5 22.92 27.5h-5.4c-2.34 0-4.56 1.02-6.08 2.8-1.52 1.78-2.18 4.13-1.8 6.45C68 359.73 122.9 408.2 191.7 415.13c2.26.24 4.5-.5 6.2-2.02 1.66-1.52 2.62-3.7 2.6-5.96V183.98c0-4.42-3.58-8-8-8H120.5v-16h72c4.42 0 8-3.6 8-8v-34.32c0-3.54-2.33-6.66-5.72-7.67-22.84-6.82-37.22-29.36-33.78-52.94S184.67 16 208.5 16s44.05 17.48 47.5 41.06-10.94 46.12-33.78 52.93c-3.4 1-5.72 4.12-5.72 7.66v34.32c0 4.4 3.58 8 8 8h72v16h-72c-4.42 0-8 3.58-8 8v223.2c0 2.27.94 4.43 2.62 5.96 1.68 1.52 3.92 2.27 6.18 2.04 68.74-6.94 123.68-55.42 133.6-117.92.38-2.32-.3-4.7-1.8-6.47-1.54-1.8-3.77-2.83-6.12-2.82h-5.4l22.92-27.5 22.92 27.5zm0 0"/></svg>